# xmcd CD database file
#
# Track frame offsets:
#	150
#	11961
#	28307
#	44082
#	58712
#	72834
#	89170
#	103794
#	117945
#	133975
#
# Disc length: 1966 seconds
#
# Revision: 1
# Processed by: cddbd v1.5.2PL0 Copyright (c) Steve Scherf et al.
# Submitted via: CDex 1.70beta2
#
DISCID=9e07ac0a
DTITLE=Griff, Ray - Cdn. - AB - Bring It On
DYEAR=2008
DGENRE=Country
TTITLE0=Bring It On
TTITLE1=How, When, Where, Why
TTITLE2=What Ended Too Soon
TTITLE3=Mrs. Chiles Southern Style Cafe
TTITLE4=I Never Sent It
TTITLE5=If I Had It To Do All Over
TTITLE6=I Remember Loving You
TTITLE7=Oh What I'd Give
TTITLE8=Bobby Valentine
TTITLE9=God Knows
EXTD=YEAR: 2008
EXTT0=
EXTT1=
EXTT2=
EXTT3=
EXTT4=
EXTT5=
EXTT6=
EXTT7=
EXTT8=
EXTT9=
PLAYORDER=
